<svg xmlns="http://www.w3.org/2000/svg" xmlns:xlink="http://www.w3.org/1999/xlink" width="2000" zoomAndPan="magnify" viewBox="0 0 1500 1499.999933" height="2000" preserveAspectRatio="xMidYMid meet" version="1.0"><defs><g/><clipPath id="6953191cf8"><path d="M 0.121094 857 L 1491 857 L 1491 1166 L 0.121094 1166 Z M 0.121094 857 " clip-rule="nonzero"/></clipPath><clipPath id="15752cdcbc"><rect x="0" width="1491" y="0" height="309"/></clipPath><clipPath id="d8925d9ee3"><path d="M 1011.929688 826.242188 L 1324.714844 826.242188 L 1324.714844 1139 L 1011.929688 1139 Z M 1011.929688 826.242188 " clip-rule="nonzero"/></clipPath><clipPath id="3115a7bb21"><path d="M 444.746094 286 L 810 286 L 810 644 L 444.746094 644 Z M 444.746094 286 " clip-rule="nonzero"/></clipPath><clipPath id="1e53e7fc44"><path d="M 809.351562 286.652344 C 809.519531 310.910156 806.683594 391.023438 767.308594 469.253906 C 754.894531 493.859375 738.882812 518.296875 718.171875 540.75 C 664.535156 598.921875 579.449219 643.707031 444.746094 643.707031 L 444.746094 507.035156 C 544.097656 507.035156 616.429688 491.8125 669.097656 469.253906 C 687.851562 461.203125 704.132812 452.242188 718.21875 442.691406 C 801.089844 386.503906 809.015625 310.367188 809.351562 286.652344 Z M 809.351562 286.652344 " clip-rule="nonzero"/></clipPath><clipPath id="1dddac0a4b"><path d="M 672 629 L 810 629 L 810 825.96875 L 672 825.96875 Z M 672 629 " clip-rule="nonzero"/></clipPath><clipPath id="3e7db60a26"><path d="M 672 461 L 1037.957031 461 L 1037.957031 819 L 672 819 Z M 672 461 " clip-rule="nonzero"/></clipPath><clipPath id="67d9524869"><path d="M 672.570312 818.527344 C 672.402344 794.273438 675.238281 714.160156 714.609375 635.929688 C 727.027344 611.324219 743.039062 586.886719 763.746094 564.433594 C 817.386719 506.261719 902.46875 461.476562 1037.1875 461.476562 L 1037.1875 598.148438 C 937.839844 598.148438 865.507812 613.371094 812.839844 635.929688 C 794.085938 643.980469 777.800781 652.941406 763.714844 662.492188 C 680.847656 718.679688 672.917969 794.832031 672.570312 818.527344 Z M 672.570312 818.527344 " clip-rule="nonzero"/></clipPath><clipPath id="144b8e8f80"><path d="M 425 1115 L 1070 1115 L 1070 1189.039062 L 425 1189.039062 Z M 425 1115 " clip-rule="nonzero"/></clipPath><clipPath id="37d93218fe"><rect x="0" width="645" y="0" height="75"/></clipPath><clipPath id="0e734fcd2e"><path d="M 37 0.558594 L 1443 0.558594 L 1443 843 L 37 843 Z M 37 0.558594 " clip-rule="nonzero"/></clipPath><clipPath id="d21565405f"><rect x="0" width="1406" y="0" height="843"/></clipPath><clipPath id="bd43135be2"><rect x="0" width="1491" y="0" height="1190"/></clipPath></defs><g transform="matrix(1, 0, 0, 1, 9, 94)"><g clip-path="url(#bd43135be2)"><g clip-path="url(#6953191cf8)"><g transform="matrix(1, 0, 0, 1, -0.000000000000001776, 857)"><g clip-path="url(#15752cdcbc)"><g fill="#ffffff" fill-opacity="1"><g transform="translate(10.523932, 220.543743)"><g><path d="M 88.140625 -203.390625 C 98.953125 -203.390625 109.523438 -201.816406 119.859375 -198.671875 C 130.191406 -195.523438 137.859375 -192.421875 142.859375 -189.359375 L 150.125 -184.515625 L 131.71875 -148.1875 C 130.269531 -149.15625 128.253906 -150.40625 125.671875 -151.9375 C 123.085938 -153.476562 118.242188 -155.535156 111.140625 -158.109375 C 104.035156 -160.691406 97.414062 -161.984375 91.28125 -161.984375 C 83.695312 -161.984375 77.847656 -160.367188 73.734375 -157.140625 C 69.617188 -153.921875 67.5625 -149.566406 67.5625 -144.078125 C 67.5625 -141.328125 68.53125 -138.78125 70.46875 -136.4375 C 72.40625 -134.101562 75.710938 -131.601562 80.390625 -128.9375 C 85.066406 -126.269531 89.179688 -124.128906 92.734375 -122.515625 C 96.285156 -120.910156 101.773438 -118.492188 109.203125 -115.265625 C 122.117188 -109.773438 133.132812 -102.304688 142.25 -92.859375 C 151.375 -83.421875 155.9375 -72.726562 155.9375 -60.78125 C 155.9375 -49.3125 153.878906 -39.300781 149.765625 -30.75 C 145.648438 -22.195312 140 -15.5 132.8125 -10.65625 C 125.625 -5.8125 117.671875 -2.222656 108.953125 0.109375 C 100.242188 2.453125 90.800781 3.625 80.625 3.625 C 71.914062 3.625 63.363281 2.738281 54.96875 0.96875 C 46.570312 -0.800781 39.546875 -3.019531 33.890625 -5.6875 C 28.242188 -8.351562 23.160156 -10.976562 18.640625 -13.5625 C 14.117188 -16.144531 10.8125 -18.320312 8.71875 -20.09375 L 5.5625 -22.765625 L 28.328125 -61.015625 C 30.265625 -59.398438 32.925781 -57.34375 36.3125 -54.84375 C 39.707031 -52.34375 45.722656 -48.992188 54.359375 -44.796875 C 62.992188 -40.597656 70.625 -38.5 77.25 -38.5 C 96.457031 -38.5 106.0625 -45.035156 106.0625 -58.109375 C 106.0625 -60.859375 105.375 -63.398438 104 -65.734375 C 102.625 -68.078125 100.203125 -70.421875 96.734375 -72.765625 C 93.265625 -75.109375 90.195312 -76.960938 87.53125 -78.328125 C 84.863281 -79.703125 80.503906 -81.800781 74.453125 -84.625 C 68.398438 -87.445312 63.921875 -89.585938 61.015625 -91.046875 C 48.910156 -97.015625 39.546875 -104.476562 32.921875 -113.4375 C 26.304688 -122.394531 23 -132.039062 23 -142.375 C 23 -160.289062 29.617188 -174.9375 42.859375 -186.3125 C 56.097656 -197.695312 71.191406 -203.390625 88.140625 -203.390625 Z M 88.140625 -203.390625 "/></g></g></g><g fill="#ffffff" fill-opacity="1"><g transform="translate(198.078583, 220.543743)"><g><path d="M 115.984375 -199.765625 L 196.625 0 L 147.703125 0 L 132.9375 -39.953125 L 56.90625 -39.953125 L 42.125 0 L -6.78125 0 L 73.859375 -199.765625 Z M 117.4375 -79.90625 L 95.15625 -138.015625 L 94.671875 -138.015625 L 72.40625 -79.90625 Z M 117.4375 -79.90625 "/></g></g></g><g fill="#ffffff" fill-opacity="1"><g transform="translate(412.735305, 220.543743)"><g><path d="M 179.671875 0 L 170.21875 -118.40625 L 169.015625 -118.40625 L 128.09375 -1.203125 L 100.96875 -1.203125 L 60.046875 -118.40625 L 58.84375 -118.40625 L 49.390625 0 L 3.875 0 L 21.796875 -199.765625 L 70.21875 -199.765625 L 114.53125 -84.5 L 158.84375 -199.765625 L 207.265625 -199.765625 L 225.1875 0 Z M 179.671875 0 "/></g></g></g><g fill="#ffffff" fill-opacity="1"><g transform="translate(666.593308, 220.543743)"><g><path d="M 128.8125 -199.765625 L 128.8125 -159.8125 L 60.046875 -159.8125 L 60.046875 -120.109375 L 125.90625 -120.109375 L 125.90625 -80.15625 L 60.046875 -80.15625 L 60.046875 -39.953125 L 128.8125 -39.953125 L 128.8125 0 L 14.53125 0 L 14.53125 -199.765625 Z M 128.8125 -199.765625 "/></g></g></g><g fill="#ffffff" fill-opacity="1"><g transform="translate(831.885504, 220.543743)"><g><path d="M 14.53125 -199.765625 L 72.40625 -199.765625 C 100.164062 -199.765625 123.890625 -190.28125 143.578125 -171.3125 C 163.273438 -152.34375 173.125 -128.570312 173.125 -100 C 173.125 -71.269531 163.316406 -47.421875 143.703125 -28.453125 C 124.097656 -9.484375 100.332031 0 72.40625 0 L 14.53125 0 Z M 60.046875 -40.671875 L 67.078125 -40.671875 C 83.703125 -40.671875 97.300781 -46.28125 107.875 -57.5 C 118.445312 -68.726562 123.8125 -82.816406 123.96875 -99.765625 C 123.96875 -116.710938 118.679688 -130.835938 108.109375 -142.140625 C 97.535156 -153.441406 83.859375 -159.09375 67.078125 -159.09375 L 60.046875 -159.09375 Z M 60.046875 -40.671875 "/></g></g></g><g fill="#ffffff" fill-opacity="1"><g transform="translate(1035.475497, 220.543743)"><g/></g></g><g fill="#ffffff" fill-opacity="1"><g transform="translate(1126.479053, 220.543743)"><g/></g></g><g fill="#ffffff" fill-opacity="1"><g transform="translate(1217.482608, 220.543743)"><g/></g></g><g fill="#ffffff" fill-opacity="1"><g transform="translate(1308.544027, 220.543743)"><g><path d="M 88.140625 -203.390625 C 98.953125 -203.390625 109.523438 -201.816406 119.859375 -198.671875 C 130.191406 -195.523438 137.859375 -192.421875 142.859375 -189.359375 L 150.125 -184.515625 L 131.71875 -148.1875 C 130.269531 -149.15625 128.253906 -150.40625 125.671875 -151.9375 C 123.085938 -153.476562 118.242188 -155.535156 111.140625 -158.109375 C 104.035156 -160.691406 97.414062 -161.984375 91.28125 -161.984375 C 83.695312 -161.984375 77.847656 -160.367188 73.734375 -157.140625 C 69.617188 -153.921875 67.5625 -149.566406 67.5625 -144.078125 C 67.5625 -141.328125 68.53125 -138.78125 70.46875 -136.4375 C 72.40625 -134.101562 75.710938 -131.601562 80.390625 -128.9375 C 85.066406 -126.269531 89.179688 -124.128906 92.734375 -122.515625 C 96.285156 -120.910156 101.773438 -118.492188 109.203125 -115.265625 C 122.117188 -109.773438 133.132812 -102.304688 142.25 -92.859375 C 151.375 -83.421875 155.9375 -72.726562 155.9375 -60.78125 C 155.9375 -49.3125 153.878906 -39.300781 149.765625 -30.75 C 145.648438 -22.195312 140 -15.5 132.8125 -10.65625 C 125.625 -5.8125 117.671875 -2.222656 108.953125 0.109375 C 100.242188 2.453125 90.800781 3.625 80.625 3.625 C 71.914062 3.625 63.363281 2.738281 54.96875 0.96875 C 46.570312 -0.800781 39.546875 -3.019531 33.890625 -5.6875 C 28.242188 -8.351562 23.160156 -10.976562 18.640625 -13.5625 C 14.117188 -16.144531 10.8125 -18.320312 8.71875 -20.09375 L 5.5625 -22.765625 L 28.328125 -61.015625 C 30.265625 -59.398438 32.925781 -57.34375 36.3125 -54.84375 C 39.707031 -52.34375 45.722656 -48.992188 54.359375 -44.796875 C 62.992188 -40.597656 70.625 -38.5 77.25 -38.5 C 96.457031 -38.5 106.0625 -45.035156 106.0625 -58.109375 C 106.0625 -60.859375 105.375 -63.398438 104 -65.734375 C 102.625 -68.078125 100.203125 -70.421875 96.734375 -72.765625 C 93.265625 -75.109375 90.195312 -76.960938 87.53125 -78.328125 C 84.863281 -79.703125 80.503906 -81.800781 74.453125 -84.625 C 68.398438 -87.445312 63.921875 -89.585938 61.015625 -91.046875 C 48.910156 -97.015625 39.546875 -104.476562 32.921875 -113.4375 C 26.304688 -122.394531 23 -132.039062 23 -142.375 C 23 -160.289062 29.617188 -174.9375 42.859375 -186.3125 C 56.097656 -197.695312 71.191406 -203.390625 88.140625 -203.390625 Z M 88.140625 -203.390625 "/></g></g></g></g></g></g><g clip-path="url(#d8925d9ee3)"><path fill="#ffffff" d="M 1317.6875 975.320312 C 1305.628906 973.984375 1294.023438 977.324219 1281.964844 978.25 C 1280.820312 978.300781 1279.679688 978.3125 1278.535156 978.351562 C 1278.300781 971.800781 1277.484375 965.320312 1276.09375 958.917969 C 1274.699219 952.511719 1272.75 946.28125 1270.242188 940.222656 C 1267.738281 934.167969 1264.710938 928.378906 1261.171875 922.863281 C 1257.632812 917.347656 1253.628906 912.1875 1249.167969 907.386719 C 1250.003906 906.609375 1250.777344 905.769531 1251.625 905 C 1260.808594 897.132812 1271.382812 891.277344 1278.960938 881.816406 C 1279.324219 881.355469 1283.269531 876.632812 1278.640625 872.003906 C 1274.011719 867.375 1269.289062 871.3125 1268.828125 871.683594 C 1259.355469 879.265625 1253.511719 889.835938 1245.644531 899.019531 C 1244.871094 899.863281 1244.035156 900.640625 1243.265625 901.476562 C 1238.464844 897.011719 1233.304688 893.011719 1227.789062 889.46875 C 1222.273438 885.929688 1216.484375 882.90625 1210.429688 880.398438 C 1204.371094 877.894531 1198.140625 875.945312 1191.734375 874.550781 C 1185.332031 873.15625 1178.851562 872.34375 1172.300781 872.109375 C 1172.339844 870.964844 1172.351562 869.820312 1172.402344 868.679688 C 1173.335938 856.621094 1176.671875 845.011719 1175.332031 832.957031 C 1175.261719 832.375 1174.710938 826.25 1168.164062 826.25 C 1161.617188 826.25 1161.066406 832.375 1161 832.960938 C 1159.664062 845.019531 1163.003906 856.628906 1163.929688 868.683594 C 1163.980469 869.828125 1163.992188 870.972656 1164.027344 872.117188 C 1157.476562 872.351562 1151 873.164062 1144.59375 874.558594 C 1138.191406 875.949219 1131.960938 877.898438 1125.902344 880.40625 C 1119.847656 882.914062 1114.058594 885.9375 1108.542969 889.476562 C 1103.027344 893.019531 1097.867188 897.019531 1093.066406 901.480469 C 1092.289062 900.648438 1091.449219 899.871094 1090.679688 899.027344 C 1082.8125 889.839844 1076.957031 879.265625 1067.492188 871.691406 C 1067.03125 871.324219 1062.3125 867.382812 1057.683594 872.011719 C 1053.054688 876.640625 1056.992188 881.359375 1057.363281 881.820312 C 1064.945312 891.292969 1075.511719 897.140625 1084.699219 905.007812 C 1085.542969 905.777344 1086.320312 906.617188 1087.152344 907.394531 C 1082.691406 912.195312 1078.691406 917.355469 1075.148438 922.871094 C 1071.609375 928.386719 1068.585938 934.175781 1066.078125 940.230469 C 1063.570312 946.289062 1061.621094 952.519531 1060.230469 958.921875 C 1058.835938 965.328125 1058.023438 971.808594 1057.789062 978.355469 C 1056.644531 978.320312 1055.5 978.308594 1054.355469 978.257812 C 1042.300781 977.324219 1030.691406 973.984375 1018.632812 975.328125 C 1018.054688 975.386719 1011.929688 975.9375 1011.929688 982.484375 C 1011.929688 989.03125 1018.054688 989.585938 1018.640625 989.640625 C 1030.699219 990.976562 1042.304688 987.640625 1054.363281 986.714844 C 1055.507812 986.660156 1056.652344 986.652344 1057.792969 986.613281 C 1058.03125 993.164062 1058.84375 999.640625 1060.238281 1006.046875 C 1061.628906 1012.453125 1063.578125 1018.683594 1066.085938 1024.738281 C 1068.59375 1030.796875 1071.617188 1036.582031 1075.15625 1042.097656 C 1078.695312 1047.613281 1082.699219 1052.773438 1087.160156 1057.574219 C 1086.328125 1058.355469 1085.550781 1059.191406 1084.707031 1059.953125 C 1075.519531 1067.820312 1064.945312 1073.675781 1057.371094 1083.140625 C 1057.003906 1083.601562 1053.0625 1088.320312 1057.691406 1092.949219 C 1062.320312 1097.578125 1067.039062 1093.636719 1067.5 1093.269531 C 1076.972656 1085.6875 1082.820312 1075.121094 1090.6875 1065.933594 C 1091.457031 1065.089844 1092.296875 1064.3125 1093.074219 1063.476562 C 1097.875 1067.941406 1103.035156 1071.941406 1108.550781 1075.480469 C 1114.066406 1079.023438 1119.851562 1082.046875 1125.910156 1084.554688 C 1131.964844 1087.058594 1138.199219 1089.007812 1144.601562 1090.402344 C 1151.007812 1091.796875 1157.484375 1092.609375 1164.035156 1092.84375 C 1163.996094 1093.988281 1163.988281 1095.132812 1163.9375 1096.273438 C 1163.003906 1108.332031 1159.664062 1119.941406 1161.007812 1132 C 1161.074219 1132.585938 1161.625 1138.710938 1168.171875 1138.710938 C 1174.71875 1138.710938 1175.269531 1132.585938 1175.335938 1132 C 1176.671875 1119.941406 1173.332031 1108.332031 1172.40625 1096.273438 C 1172.355469 1095.132812 1172.34375 1093.988281 1172.304688 1092.84375 C 1178.855469 1092.609375 1185.335938 1091.796875 1191.738281 1090.402344 C 1198.144531 1089.007812 1204.375 1087.058594 1210.433594 1084.554688 C 1216.488281 1082.046875 1222.277344 1079.023438 1227.792969 1075.480469 C 1233.308594 1071.941406 1238.46875 1067.941406 1243.269531 1063.476562 C 1244.046875 1064.3125 1244.886719 1065.089844 1245.648438 1065.933594 C 1253.515625 1075.121094 1259.371094 1085.695312 1268.832031 1093.269531 C 1269.292969 1093.636719 1274.015625 1097.578125 1278.644531 1092.949219 C 1283.273438 1088.320312 1279.332031 1083.601562 1278.964844 1083.140625 C 1271.382812 1073.667969 1260.8125 1067.820312 1251.628906 1059.953125 C 1250.78125 1059.183594 1250.007812 1058.34375 1249.171875 1057.574219 C 1253.632812 1052.773438 1257.636719 1047.613281 1261.175781 1042.097656 C 1264.714844 1036.582031 1267.738281 1030.796875 1270.246094 1024.738281 C 1272.753906 1018.683594 1274.703125 1012.453125 1276.097656 1006.046875 C 1277.488281 999.640625 1278.304688 993.164062 1278.539062 986.613281 C 1279.683594 986.652344 1280.824219 986.660156 1281.96875 986.714844 C 1294.027344 987.644531 1305.632812 990.984375 1317.691406 989.640625 C 1318.277344 989.578125 1324.402344 989.027344 1324.402344 982.476562 C 1324.402344 975.929688 1318.277344 975.386719 1317.6875 975.320312 Z M 1225.714844 918.875 C 1223.320312 921.105469 1220.96875 923.375 1218.535156 925.566406 C 1209.246094 934.164062 1199.644531 942.4375 1190.4375 951.113281 C 1187.960938 953.449219 1185.53125 955.828125 1183.09375 958.199219 C 1180.523438 956.53125 1177.753906 955.324219 1174.78125 954.585938 C 1174.730469 951.238281 1174.695312 947.898438 1174.597656 944.550781 C 1174.230469 931.90625 1173.289062 919.261719 1172.792969 906.621094 C 1172.625 903.339844 1172.484375 900.058594 1172.363281 896.78125 C 1177.28125 897.015625 1182.136719 897.671875 1186.941406 898.75 C 1191.742188 899.824219 1196.417969 901.300781 1200.960938 903.183594 C 1205.507812 905.066406 1209.859375 907.328125 1214.015625 909.960938 C 1218.171875 912.59375 1222.070312 915.566406 1225.714844 918.875 Z M 1168.164062 999.015625 C 1159.457031 999.015625 1152.371094 991.597656 1152.371094 982.480469 C 1152.371094 973.363281 1159.457031 965.945312 1168.164062 965.945312 C 1176.871094 965.945312 1183.957031 973.363281 1183.957031 982.480469 C 1183.957031 991.597656 1176.875 999.019531 1168.164062 999.019531 Z M 1163.964844 896.78125 C 1163.84375 900.058594 1163.699219 903.339844 1163.535156 906.621094 C 1163.039062 919.261719 1162.105469 931.90625 1161.734375 944.550781 C 1161.632812 947.898438 1161.597656 951.238281 1161.550781 954.585938 C 1158.578125 955.324219 1155.808594 956.53125 1153.238281 958.199219 C 1150.796875 955.828125 1148.367188 953.441406 1145.894531 951.113281 C 1136.683594 942.433594 1127.082031 934.15625 1117.792969 925.566406 C 1115.363281 923.371094 1113.007812 921.105469 1110.617188 918.875 C 1114.257812 915.566406 1118.15625 912.59375 1122.3125 909.960938 C 1126.46875 907.328125 1130.820312 905.066406 1135.367188 903.183594 C 1139.914062 901.300781 1144.585938 899.824219 1149.390625 898.75 C 1154.191406 897.671875 1159.050781 897.015625 1163.964844 896.78125 Z M 1104.554688 924.9375 C 1106.785156 927.328125 1109.054688 929.683594 1111.246094 932.113281 C 1119.84375 941.402344 1128.117188 951.003906 1136.792969 960.210938 C 1139.207031 962.773438 1141.671875 965.285156 1144.121094 967.8125 C 1142.65625 970.335938 1141.597656 973.019531 1140.941406 975.863281 C 1137.371094 975.914062 1133.804688 975.953125 1130.230469 976.058594 C 1117.585938 976.421875 1104.941406 977.367188 1092.296875 977.859375 C 1089.019531 978.027344 1085.738281 978.171875 1082.460938 978.289062 C 1082.695312 973.375 1083.351562 968.515625 1084.425781 963.714844 C 1085.5 958.910156 1086.980469 954.238281 1088.863281 949.691406 C 1090.746094 945.144531 1093.003906 940.792969 1095.640625 936.636719 C 1098.273438 932.480469 1101.246094 928.578125 1104.554688 924.9375 Z M 1082.460938 986.6875 C 1085.738281 986.808594 1089.019531 986.953125 1092.296875 987.117188 C 1104.941406 987.609375 1117.585938 988.542969 1130.230469 988.917969 C 1133.800781 989.023438 1137.367188 989.0625 1140.941406 989.113281 C 1141.597656 991.957031 1142.65625 994.640625 1144.121094 997.164062 C 1141.671875 999.6875 1139.207031 1002.203125 1136.792969 1004.761719 C 1128.113281 1013.976562 1119.835938 1023.570312 1111.246094 1032.859375 C 1109.050781 1035.289062 1106.785156 1037.640625 1104.554688 1040.035156 C 1101.246094 1036.394531 1098.273438 1032.492188 1095.640625 1028.335938 C 1093.003906 1024.179688 1090.746094 1019.828125 1088.863281 1015.285156 C 1086.980469 1010.738281 1085.503906 1006.0625 1084.425781 1001.261719 C 1083.351562 996.460938 1082.695312 991.601562 1082.460938 986.6875 Z M 1110.617188 1046.097656 C 1113.007812 1043.867188 1115.363281 1041.597656 1117.792969 1039.40625 C 1127.082031 1030.804688 1136.683594 1022.53125 1145.890625 1013.855469 C 1148.367188 1011.523438 1150.796875 1009.140625 1153.238281 1006.773438 C 1155.804688 1008.441406 1158.578125 1009.648438 1161.550781 1010.386719 C 1161.597656 1013.730469 1161.632812 1017.074219 1161.734375 1020.417969 C 1162.097656 1033.0625 1163.039062 1045.707031 1163.535156 1058.351562 C 1163.703125 1061.632812 1163.847656 1064.910156 1163.964844 1068.191406 C 1159.050781 1067.953125 1154.191406 1067.300781 1149.390625 1066.222656 C 1144.585938 1065.148438 1139.914062 1063.667969 1135.367188 1061.785156 C 1130.820312 1059.902344 1126.46875 1057.644531 1122.3125 1055.011719 C 1118.15625 1052.375 1114.257812 1049.40625 1110.617188 1046.097656 Z M 1172.363281 1068.191406 C 1172.488281 1064.910156 1172.628906 1061.632812 1172.792969 1058.351562 C 1173.289062 1045.707031 1174.222656 1033.0625 1174.597656 1020.417969 C 1174.695312 1017.074219 1174.730469 1013.730469 1174.78125 1010.386719 C 1177.753906 1009.648438 1180.523438 1008.441406 1183.09375 1006.773438 C 1185.53125 1009.152344 1187.960938 1011.53125 1190.4375 1013.855469 C 1199.65625 1022.53125 1209.246094 1030.808594 1218.535156 1039.40625 C 1220.96875 1041.601562 1223.320312 1043.867188 1225.714844 1046.097656 C 1222.070312 1049.40625 1218.171875 1052.378906 1214.015625 1055.011719 C 1209.859375 1057.648438 1205.507812 1059.90625 1200.960938 1061.789062 C 1196.414062 1063.671875 1191.742188 1065.148438 1186.941406 1066.222656 C 1182.136719 1067.300781 1177.28125 1067.953125 1172.363281 1068.191406 Z M 1231.777344 1040.035156 C 1229.546875 1037.640625 1227.277344 1035.277344 1225.085938 1032.859375 C 1216.484375 1023.570312 1208.210938 1013.964844 1199.535156 1004.757812 C 1197.121094 1002.199219 1194.660156 999.6875 1192.214844 997.160156 C 1193.679688 994.636719 1194.742188 991.953125 1195.394531 989.109375 C 1198.964844 989.058594 1202.53125 989.019531 1206.105469 988.914062 C 1218.75 988.546875 1231.394531 987.605469 1244.039062 987.113281 C 1247.316406 986.945312 1250.597656 986.800781 1253.875 986.683594 C 1253.640625 991.597656 1252.984375 996.457031 1251.910156 1001.257812 C 1250.832031 1006.0625 1249.355469 1010.734375 1247.46875 1015.28125 C 1245.585938 1019.828125 1243.328125 1024.179688 1240.691406 1028.335938 C 1238.058594 1032.492188 1235.085938 1036.394531 1231.777344 1040.035156 Z M 1244.035156 977.855469 C 1231.390625 977.363281 1218.746094 976.425781 1206.101562 976.054688 C 1202.53125 975.949219 1198.964844 975.910156 1195.390625 975.859375 C 1194.738281 973.015625 1193.675781 970.332031 1192.214844 967.808594 C 1194.664062 965.28125 1197.125 962.769531 1199.53125 960.207031 C 1208.207031 951 1216.488281 941.398438 1225.082031 932.109375 C 1227.277344 929.679688 1229.542969 927.324219 1231.773438 924.933594 C 1235.082031 928.574219 1238.050781 932.476562 1240.6875 936.632812 C 1243.320312 940.789062 1245.578125 945.136719 1247.460938 949.683594 C 1249.34375 954.230469 1250.824219 958.90625 1251.898438 963.707031 C 1252.972656 968.507812 1253.628906 973.367188 1253.867188 978.28125 C 1250.589844 978.171875 1247.3125 978.027344 1244.03125 977.855469 Z M 1244.035156 977.855469 " fill-opacity="1" fill-rule="nonzero"/></g><path fill="#ffffff" d="M 672.539062 475.378906 L 672.539062 279.253906 L 809.382812 279.253906 C 809.382812 279.253906 811.214844 371.054688 776.222656 408.03125 C 741.234375 445.011719 672.539062 475.378906 672.539062 475.378906 Z M 672.539062 475.378906 " fill-opacity="1" fill-rule="nonzero"/><g clip-path="url(#3115a7bb21)"><g clip-path="url(#1e53e7fc44)"><path fill="#ffffff" d="M 444.746094 286.652344 L 444.746094 643.707031 L 809.519531 643.707031 L 809.519531 286.652344 Z M 444.746094 286.652344 " fill-opacity="1" fill-rule="nonzero"/></g></g><g clip-path="url(#1dddac0a4b)"><path fill="#ffffff" d="M 809.394531 629.804688 L 809.394531 825.929688 L 672.554688 825.929688 C 672.554688 825.929688 670.71875 734.128906 705.710938 697.152344 C 740.703125 660.1875 809.394531 629.804688 809.394531 629.804688 Z M 809.394531 629.804688 " fill-opacity="1" fill-rule="nonzero"/></g><g clip-path="url(#3e7db60a26)"><g clip-path="url(#67d9524869)"><path fill="#ffffff" d="M 1037.1875 818.527344 L 1037.1875 461.476562 L 672.402344 461.476562 L 672.402344 818.527344 Z M 1037.1875 818.527344 " fill-opacity="1" fill-rule="nonzero"/></g></g><g clip-path="url(#144b8e8f80)"><g transform="matrix(1, 0, 0, 1, 425, 1115)"><g clip-path="url(#37d93218fe)"><g fill="#ffffff" fill-opacity="1"><g transform="translate(2.838989, 53.542121)"><g><path d="M 1.71875 0 L 16.4375 -39.96875 L 21.53125 -39.96875 L 36.203125 0 L 31.109375 0 L 27.46875 -10.28125 L 10.453125 -10.28125 L 6.734375 0 Z M 11.875 -14.15625 L 26.03125 -14.15625 L 18.953125 -33.90625 Z M 11.875 -14.15625 "/></g></g></g><g fill="#ffffff" fill-opacity="1"><g transform="translate(55.596247, 53.542121)"><g><path d="M 4.21875 0 L 4.21875 -39.96875 L 17.125 -39.96875 C 20.25 -39.96875 22.800781 -39.453125 24.78125 -38.421875 C 26.757812 -37.390625 28.222656 -35.976562 29.171875 -34.1875 C 30.128906 -32.40625 30.609375 -30.429688 30.609375 -28.265625 C 30.609375 -25.753906 29.929688 -23.488281 28.578125 -21.46875 C 27.222656 -19.445312 25.117188 -18.019531 22.265625 -17.1875 L 31 0 L 25.34375 0 L 17.25 -16.5 L 9.015625 -16.5 L 9.015625 0 Z M 9.015625 -20.265625 L 16.78125 -20.265625 C 19.863281 -20.265625 22.109375 -21.003906 23.515625 -22.484375 C 24.929688 -23.972656 25.640625 -25.878906 25.640625 -28.203125 C 25.640625 -30.566406 24.941406 -32.441406 23.546875 -33.828125 C 22.160156 -35.210938 19.890625 -35.90625 16.734375 -35.90625 L 9.015625 -35.90625 Z M 9.015625 -20.265625 "/></g></g></g><g fill="#ffffff" fill-opacity="1"><g transform="translate(104.300607, 53.542121)"><g><path d="M 4.21875 0 L 4.21875 -39.96875 L 18.265625 -39.96875 C 21.085938 -39.96875 23.421875 -39.519531 25.265625 -38.625 C 27.109375 -37.726562 28.488281 -36.507812 29.40625 -34.96875 C 30.320312 -33.425781 30.78125 -31.703125 30.78125 -29.796875 C 30.78125 -27.210938 30.082031 -25.175781 28.6875 -23.6875 C 27.300781 -22.207031 25.632812 -21.179688 23.6875 -20.609375 C 25.175781 -20.347656 26.53125 -19.757812 27.75 -18.84375 C 28.96875 -17.925781 29.925781 -16.78125 30.625 -15.40625 C 31.332031 -14.039062 31.6875 -12.539062 31.6875 -10.90625 C 31.6875 -8.882812 31.191406 -7.046875 30.203125 -5.390625 C 29.210938 -3.734375 27.742188 -2.421875 25.796875 -1.453125 C 23.859375 -0.484375 21.503906 0 18.734375 0 Z M 9.015625 -22.5 L 17.921875 -22.5 C 20.472656 -22.5 22.429688 -23.097656 23.796875 -24.296875 C 25.171875 -25.492188 25.859375 -27.160156 25.859375 -29.296875 C 25.859375 -31.304688 25.179688 -32.921875 23.828125 -34.140625 C 22.484375 -35.359375 20.457031 -35.96875 17.75 -35.96875 L 9.015625 -35.96875 Z M 9.015625 -4 L 18.21875 -4 C 20.957031 -4 23.066406 -4.632812 24.546875 -5.90625 C 26.035156 -7.1875 26.78125 -8.96875 26.78125 -11.25 C 26.78125 -13.488281 26 -15.285156 24.4375 -16.640625 C 22.875 -17.992188 20.757812 -18.671875 18.09375 -18.671875 L 9.015625 -18.671875 Z M 9.015625 -4 "/></g></g></g><g fill="#ffffff" fill-opacity="1"><g transform="translate(153.518727, 53.542121)"><g><path d="M 4.21875 0 L 4.21875 -39.96875 L 28.953125 -39.96875 L 28.953125 -36.03125 L 9.015625 -36.03125 L 9.015625 -22.09375 L 27.234375 -22.09375 L 27.234375 -18.21875 L 9.015625 -18.21875 L 9.015625 -3.9375 L 28.953125 -3.9375 L 28.953125 0 Z M 4.21875 0 "/></g></g></g><g fill="#ffffff" fill-opacity="1"><g transform="translate(200.567711, 53.542121)"><g><path d="M 4.21875 0 L 4.21875 -39.96875 L 9.015625 -39.96875 L 9.015625 0 Z M 4.21875 0 "/></g></g></g><g fill="#ffffff" fill-opacity="1"><g transform="translate(228.665166, 53.542121)"><g><path d="M 13.59375 0 L 13.59375 -36.03125 L 1.65625 -36.03125 L 1.65625 -39.96875 L 30.3125 -39.96875 L 30.3125 -36.03125 L 18.390625 -36.03125 L 18.390625 0 Z M 13.59375 0 "/></g></g></g><g fill="#ffffff" fill-opacity="1"><g transform="translate(275.485827, 53.542121)"><g><path d="M 16.953125 0.6875 C 14.023438 0.6875 11.472656 0.15625 9.296875 -0.90625 C 7.128906 -1.976562 5.457031 -3.460938 4.28125 -5.359375 C 3.101562 -7.265625 2.515625 -9.472656 2.515625 -11.984375 L 7.53125 -11.984375 C 7.53125 -10.429688 7.890625 -8.992188 8.609375 -7.671875 C 9.335938 -6.359375 10.394531 -5.3125 11.78125 -4.53125 C 13.175781 -3.757812 14.898438 -3.375 16.953125 -3.375 C 19.660156 -3.375 21.753906 -4.019531 23.234375 -5.3125 C 24.722656 -6.601562 25.46875 -8.21875 25.46875 -10.15625 C 25.46875 -11.757812 25.125 -13.046875 24.4375 -14.015625 C 23.75 -14.984375 22.820312 -15.769531 21.65625 -16.375 C 20.5 -16.988281 19.171875 -17.523438 17.671875 -17.984375 C 16.171875 -18.441406 14.597656 -18.957031 12.953125 -19.53125 C 9.867188 -20.59375 7.582031 -21.910156 6.09375 -23.484375 C 4.613281 -25.066406 3.875 -27.132812 3.875 -29.6875 C 3.84375 -31.820312 4.335938 -33.71875 5.359375 -35.375 C 6.390625 -37.03125 7.847656 -38.320312 9.734375 -39.25 C 11.617188 -40.1875 13.851562 -40.65625 16.4375 -40.65625 C 18.988281 -40.65625 21.207031 -40.175781 23.09375 -39.21875 C 24.976562 -38.269531 26.441406 -36.957031 27.484375 -35.28125 C 28.535156 -33.601562 29.082031 -31.703125 29.125 -29.578125 L 24.09375 -29.578125 C 24.09375 -30.679688 23.804688 -31.773438 23.234375 -32.859375 C 22.660156 -33.941406 21.789062 -34.828125 20.625 -35.515625 C 19.46875 -36.203125 18.015625 -36.546875 16.265625 -36.546875 C 14.097656 -36.578125 12.316406 -36.019531 10.921875 -34.875 C 9.535156 -33.738281 8.84375 -32.160156 8.84375 -30.140625 C 8.84375 -28.429688 9.328125 -27.117188 10.296875 -26.203125 C 11.273438 -25.285156 12.640625 -24.53125 14.390625 -23.9375 C 16.140625 -23.351562 18.15625 -22.679688 20.4375 -21.921875 C 22.34375 -21.234375 24.054688 -20.429688 25.578125 -19.515625 C 27.097656 -18.609375 28.285156 -17.429688 29.140625 -15.984375 C 30.003906 -14.535156 30.4375 -12.691406 30.4375 -10.453125 C 30.4375 -8.546875 29.941406 -6.742188 28.953125 -5.046875 C 27.960938 -3.359375 26.46875 -1.976562 24.46875 -0.90625 C 22.46875 0.15625 19.960938 0.6875 16.953125 0.6875 Z M 16.953125 0.6875 "/></g></g></g><g fill="#ffffff" fill-opacity="1"><g transform="translate(323.333944, 53.542121)"><g><path d="M 4.21875 0 L 4.21875 -39.96875 L 9.8125 -39.96875 L 24.203125 -12.109375 L 38.484375 -39.96875 L 44.140625 -39.96875 L 44.140625 0 L 39.34375 0 L 39.34375 -31.40625 L 25.984375 -5.703125 L 22.375 -5.703125 L 9.015625 -31.34375 L 9.015625 0 Z M 4.21875 0 "/></g></g></g><g fill="#ffffff" fill-opacity="1"><g transform="translate(386.537341, 53.542121)"><g><path d="M 4.21875 0 L 4.21875 -39.96875 L 28.953125 -39.96875 L 28.953125 -36.03125 L 9.015625 -36.03125 L 9.015625 -22.09375 L 27.234375 -22.09375 L 27.234375 -18.21875 L 9.015625 -18.21875 L 9.015625 -3.9375 L 28.953125 -3.9375 L 28.953125 0 Z M 4.21875 0 "/></g></g></g><g fill="#ffffff" fill-opacity="1"><g transform="translate(433.586325, 53.542121)"><g><path d="M 4.21875 0 L 4.21875 -39.96875 L 16.5 -39.96875 C 23.539062 -39.96875 28.722656 -38.175781 32.046875 -34.59375 C 35.378906 -31.019531 37.046875 -26.113281 37.046875 -19.875 C 37.046875 -13.738281 35.378906 -8.890625 32.046875 -5.328125 C 28.722656 -1.773438 23.539062 0 16.5 0 Z M 9.015625 -4 L 16.390625 -4 C 20.265625 -4 23.351562 -4.632812 25.65625 -5.90625 C 27.96875 -7.1875 29.617188 -9.015625 30.609375 -11.390625 C 31.597656 -13.765625 32.09375 -16.59375 32.09375 -19.875 C 32.09375 -23.21875 31.597656 -26.085938 30.609375 -28.484375 C 29.617188 -30.890625 27.96875 -32.738281 25.65625 -34.03125 C 23.351562 -35.320312 20.265625 -35.96875 16.390625 -35.96875 L 9.015625 -35.96875 Z M 9.015625 -4 "/></g></g></g><g fill="#ffffff" fill-opacity="1"><g transform="translate(488.170232, 53.542121)"><g><path d="M 4.21875 0 L 4.21875 -39.96875 L 9.015625 -39.96875 L 9.015625 0 Z M 4.21875 0 "/></g></g></g><g fill="#ffffff" fill-opacity="1"><g transform="translate(516.267687, 53.542121)"><g><path d="M 2.515625 0 L 2.515625 -3.765625 L 22.203125 -35.796875 L 2.796875 -35.796875 L 2.796875 -39.96875 L 27.8125 -39.96875 L 27.8125 -36.203125 L 8.046875 -4.171875 L 28.03125 -4.171875 L 28.03125 0 Z M 2.515625 0 "/></g></g></g><g fill="#ffffff" fill-opacity="1"><g transform="translate(561.661234, 53.542121)"><g><path d="M 4.21875 0 L 4.21875 -39.96875 L 9.015625 -39.96875 L 9.015625 0 Z M 4.21875 0 "/></g></g></g><g fill="#ffffff" fill-opacity="1"><g transform="translate(589.758689, 53.542121)"><g><path d="M 4.21875 0 L 4.21875 -39.96875 L 9.015625 -39.96875 L 30.3125 -7.9375 L 30.3125 -39.96875 L 35.109375 -39.96875 L 35.109375 0 L 30.3125 0 L 9.015625 -32.03125 L 9.015625 0 Z M 4.21875 0 "/></g></g></g></g></g></g><g clip-path="url(#0e734fcd2e)"><g transform="matrix(1, 0, 0, 1, 37, 0.000000000000113687)"><g clip-path="url(#d21565405f)"><g fill="#ffffff" fill-opacity="1"><g transform="translate(99.037386, 780.405632)"><g><path d="M -0.5625 -39.078125 C -0.25 -32.242188 -1.484375 -26.1875 -4.265625 -20.90625 C -7.054688 -15.625 -11.109375 -11.414062 -16.421875 -8.28125 C -21.742188 -5.15625 -27.960938 -3.429688 -35.078125 -3.109375 C -42.179688 -2.796875 -48.5 -3.957031 -54.03125 -6.59375 C -59.570312 -9.238281 -63.984375 -13.0625 -67.265625 -18.0625 C -70.554688 -23.070312 -72.359375 -28.992188 -72.671875 -35.828125 C -72.972656 -42.734375 -71.710938 -48.828125 -68.890625 -54.109375 C -66.078125 -59.398438 -62.03125 -63.59375 -56.75 -66.6875 C -51.46875 -69.789062 -45.273438 -71.5 -38.171875 -71.8125 C -31.054688 -72.132812 -24.710938 -70.988281 -19.140625 -68.375 C -13.566406 -65.769531 -9.148438 -61.960938 -5.890625 -56.953125 C -2.640625 -51.941406 -0.863281 -45.984375 -0.5625 -39.078125 Z M -7.953125 -38.75 C -8.179688 -43.863281 -9.523438 -48.3125 -11.984375 -52.09375 C -14.441406 -55.875 -17.859375 -58.742188 -22.234375 -60.703125 C -26.617188 -62.671875 -31.800781 -63.519531 -37.78125 -63.25 C -43.75 -62.988281 -48.804688 -61.679688 -52.953125 -59.328125 C -57.109375 -56.984375 -60.242188 -53.816406 -62.359375 -49.828125 C -64.484375 -45.835938 -65.429688 -41.285156 -65.203125 -36.171875 C -64.972656 -31.066406 -63.625 -26.625 -61.15625 -22.84375 C -58.6875 -19.0625 -55.273438 -16.1875 -50.921875 -14.21875 C -46.578125 -12.257812 -41.421875 -11.410156 -35.453125 -11.671875 C -29.472656 -11.941406 -24.390625 -13.25 -20.203125 -15.59375 C -16.023438 -17.945312 -12.878906 -21.117188 -10.765625 -25.109375 C -8.660156 -29.097656 -7.722656 -33.644531 -7.953125 -38.75 Z M -7.953125 -38.75 "/></g></g></g><g fill="#ffffff" fill-opacity="1"><g transform="translate(97.582508, 665.558873)"><g><path d="M 6.578125 -37.421875 C 5.609375 -30.648438 3.273438 -25.03125 -0.421875 -20.5625 C -4.117188 -16.09375 -8.835938 -12.890625 -14.578125 -10.953125 C -20.328125 -9.023438 -26.753906 -8.570312 -33.859375 -9.59375 C -40.898438 -10.601562 -46.910156 -12.835938 -51.890625 -16.296875 C -56.867188 -19.765625 -60.519531 -24.164062 -62.84375 -29.5 C -65.164062 -34.84375 -65.84375 -40.898438 -64.875 -47.671875 C -63.738281 -55.566406 -60.921875 -61.726562 -56.421875 -66.15625 C -51.929688 -70.582031 -46.203125 -72.992188 -39.234375 -73.390625 L -40.546875 -64.21875 C -44.960938 -63.78125 -48.703125 -62.117188 -51.765625 -59.234375 C -54.835938 -56.359375 -56.769531 -52.15625 -57.5625 -46.625 C -58.269531 -41.6875 -57.75 -37.210938 -56 -33.203125 C -54.257812 -29.191406 -51.414062 -25.878906 -47.46875 -23.265625 C -43.519531 -20.648438 -38.582031 -18.921875 -32.65625 -18.078125 C -26.738281 -17.222656 -21.515625 -17.492188 -16.984375 -18.890625 C -12.453125 -20.296875 -8.785156 -22.675781 -5.984375 -26.03125 C -3.191406 -29.382812 -1.441406 -33.53125 -0.734375 -38.46875 C 0.0546875 -44 -0.578125 -48.570312 -2.640625 -52.1875 C -4.703125 -55.8125 -7.765625 -58.453125 -11.828125 -60.109375 L -10.515625 -69.28125 C -4.066406 -66.945312 0.675781 -63.023438 3.71875 -57.515625 C 6.757812 -52.015625 7.710938 -45.316406 6.578125 -37.421875 Z M 6.578125 -37.421875 "/></g></g></g><g fill="#ffffff" fill-opacity="1"><g transform="translate(116.316754, 558.588377)"><g><path d="M 13.265625 -35.609375 C 11.078125 -29.117188 7.757812 -24.007812 3.3125 -20.28125 C -1.132812 -16.5625 -6.359375 -14.273438 -12.359375 -13.421875 C -18.359375 -12.566406 -24.757812 -13.28125 -31.5625 -15.5625 C -38.3125 -17.832031 -43.816406 -21.125 -48.078125 -25.4375 C -52.335938 -29.75 -55.128906 -34.738281 -56.453125 -40.40625 C -57.773438 -46.070312 -57.34375 -52.148438 -55.15625 -58.640625 C -52.613281 -66.191406 -48.726562 -71.738281 -43.5 -75.28125 C -38.28125 -78.820312 -32.203125 -80.164062 -25.265625 -79.3125 L -28.234375 -70.515625 C -32.660156 -70.878906 -36.640625 -69.921875 -40.171875 -67.640625 C -43.703125 -65.359375 -46.359375 -61.570312 -48.140625 -56.28125 C -49.734375 -51.550781 -50.035156 -47.054688 -49.046875 -42.796875 C -48.066406 -38.546875 -45.867188 -34.78125 -42.453125 -31.5 C -39.035156 -28.21875 -34.492188 -25.617188 -28.828125 -23.703125 C -23.160156 -21.796875 -17.972656 -21.117188 -13.265625 -21.671875 C -8.554688 -22.222656 -4.519531 -23.894531 -1.15625 -26.6875 C 2.195312 -29.476562 4.671875 -33.238281 6.265625 -37.96875 C 8.046875 -43.257812 8.242188 -47.867188 6.859375 -51.796875 C 5.484375 -55.734375 2.953125 -58.882812 -0.734375 -61.25 L 2.234375 -70.046875 C 8.140625 -66.585938 12.085938 -61.867188 14.078125 -55.890625 C 16.078125 -49.921875 15.804688 -43.160156 13.265625 -35.609375 Z M 13.265625 -35.609375 "/></g></g></g><g fill="#ffffff" fill-opacity="1"><g transform="translate(154.3651, 456.757304)"><g><path d="M 16.75 -28 C 14.445312 -23.800781 11.523438 -20.453125 7.984375 -17.953125 C 4.441406 -15.453125 0.367188 -14.144531 -4.234375 -14.03125 C -8.847656 -13.914062 -13.863281 -15.34375 -19.28125 -18.3125 L -57.90625 -39.515625 L -53.875 -46.859375 L -15.171875 -25.609375 C -9.222656 -22.347656 -4.128906 -21.40625 0.109375 -22.78125 C 4.359375 -24.164062 7.75 -27.160156 10.28125 -31.765625 C 12.800781 -36.367188 13.488281 -40.804688 12.34375 -45.078125 C 11.195312 -49.347656 7.648438 -53.113281 1.703125 -56.375 L -37 -77.625 L -32.96875 -84.953125 L 5.65625 -63.75 C 11.070312 -60.78125 14.96875 -57.316406 17.34375 -53.359375 C 19.71875 -49.398438 20.796875 -45.242188 20.578125 -40.890625 C 20.359375 -36.546875 19.082031 -32.25 16.75 -28 Z M 16.75 -28 "/></g></g></g><g fill="#ffffff" fill-opacity="1"><g transform="translate(206.70743, 368.496491)"><g><path d="M 4.5625 -5.796875 L -50.234375 -49.015625 L -36.03125 -67.015625 C -32.65625 -71.296875 -29.171875 -74.257812 -25.578125 -75.90625 C -21.984375 -77.5625 -18.460938 -78.109375 -15.015625 -77.546875 C -11.578125 -76.984375 -8.335938 -75.503906 -5.296875 -73.109375 C -2.328125 -70.773438 -0.15625 -68.003906 1.21875 -64.796875 C 2.59375 -61.597656 2.90625 -58.050781 2.15625 -54.15625 C 1.40625 -50.269531 -0.675781 -46.160156 -4.09375 -41.828125 L -13.109375 -30.390625 L 9.75 -12.359375 Z M -18.65625 -34.765625 L -9.765625 -46.046875 C -6.304688 -50.429688 -4.769531 -54.28125 -5.15625 -57.59375 C -5.550781 -60.914062 -7.363281 -63.847656 -10.59375 -66.390625 C -13.882812 -68.984375 -17.1875 -70.082031 -20.5 -69.6875 C -23.820312 -69.300781 -27.210938 -66.914062 -30.671875 -62.53125 L -39.5625 -51.25 Z M -18.65625 -34.765625 "/></g></g></g><g fill="#ffffff" fill-opacity="1"><g transform="translate(267.660092, 295.658072)"><g><path d="M 2.21875 -2 L -25.59375 -70.984375 L -19.015625 -76.9375 L 46.828125 -42.453125 L 40.25 -36.484375 L 23.484375 -45.5 L 1.46875 -25.546875 L 8.71875 -7.90625 Z M -1.234375 -32.234375 L 17.078125 -48.84375 L -15.25 -66.09375 Z M -1.234375 -32.234375 "/></g></g></g><g fill="#ffffff" fill-opacity="1"><g transform="translate(346.603005, 228.81784)"><g><path d="M 19.953125 -12.828125 L -14.0625 -65.734375 L -31.578125 -54.46875 L -35.296875 -60.265625 L 6.796875 -87.328125 L 10.515625 -81.53125 L -7.015625 -70.265625 L 27 -17.359375 Z M 19.953125 -12.828125 "/></g></g></g><g fill="#ffffff" fill-opacity="1"><g transform="translate(427.509219, 181.012519)"><g><path d="M 6.671875 -3.140625 L -23.109375 -66.25 L -15.53125 -69.828125 L 14.25 -6.71875 Z M 6.671875 -3.140625 "/></g></g></g><g fill="#ffffff" fill-opacity="1"><g transform="translate(482.968664, 155.700934)"><g><path d="M 37.765625 -10.109375 C 31.210938 -8.140625 25.035156 -7.863281 19.234375 -9.28125 C 13.429688 -10.695312 8.359375 -13.59375 4.015625 -17.96875 C -0.328125 -22.34375 -3.523438 -27.9375 -5.578125 -34.75 C -7.628906 -41.5625 -8.050781 -47.976562 -6.84375 -54 C -5.632812 -60.03125 -3.003906 -65.25 1.046875 -69.65625 C 5.097656 -74.070312 10.398438 -77.265625 16.953125 -79.234375 C 23.566406 -81.222656 29.78125 -81.492188 35.59375 -80.046875 C 41.40625 -78.609375 46.457031 -75.707031 50.75 -71.34375 C 55.050781 -66.988281 58.226562 -61.40625 60.28125 -54.59375 C 62.332031 -47.78125 62.773438 -41.351562 61.609375 -35.3125 C 60.453125 -29.269531 57.84375 -24.054688 53.78125 -19.671875 C 49.71875 -15.285156 44.378906 -12.097656 37.765625 -10.109375 Z M 35.640625 -17.1875 C 40.535156 -18.664062 44.515625 -21.0625 47.578125 -24.375 C 50.640625 -27.6875 52.585938 -31.707031 53.421875 -36.4375 C 54.253906 -41.164062 53.804688 -46.390625 52.078125 -52.109375 C 50.359375 -57.835938 47.847656 -62.425781 44.546875 -65.875 C 41.253906 -69.332031 37.414062 -71.597656 33.03125 -72.671875 C 28.644531 -73.742188 24.003906 -73.539062 19.109375 -72.0625 C 14.210938 -70.59375 10.226562 -68.195312 7.15625 -64.875 C 4.09375 -61.5625 2.144531 -57.554688 1.3125 -52.859375 C 0.476562 -48.171875 0.921875 -42.960938 2.640625 -37.234375 C 4.367188 -31.515625 6.878906 -26.910156 10.171875 -23.421875 C 13.472656 -19.929688 17.316406 -17.648438 21.703125 -16.578125 C 26.097656 -15.515625 30.742188 -15.71875 35.640625 -17.1875 Z M 35.640625 -17.1875 "/></g></g></g><g fill="#ffffff" fill-opacity="1"><g transform="translate(594.01786, 126.267599)"><g><path d="M 7.328125 -0.796875 L -0.15625 -70.171875 L 8.171875 -71.0625 L 51.140625 -19.46875 L 45.140625 -75.0625 L 53.46875 -75.953125 L 60.953125 -6.578125 L 52.625 -5.6875 L 9.65625 -57.28125 L 15.65625 -1.6875 Z M 7.328125 -0.796875 "/></g></g></g><g fill="#ffffff" fill-opacity="1"><g transform="translate(699.396075, 118.263045)"><g><path d="M 2.984375 0.203125 L 33.375 -67.6875 L 42.21875 -67.078125 L 63.0625 4.28125 L 54.203125 3.6875 L 49.0625 -14.640625 L 19.421875 -16.65625 L 11.734375 0.796875 Z M 22.359375 -23.25 L 47.015625 -21.578125 L 37.03125 -56.828125 Z M 22.359375 -23.25 "/></g></g></g><g fill="#ffffff" fill-opacity="1"><g transform="translate(802.359465, 128.86027)"><g><path d="M 7.1875 1.6875 L 23.09375 -66.25 L 31.234375 -64.34375 L 16.84375 -2.90625 L 48.5 4.5 L 46.984375 11 Z M 7.1875 1.6875 "/></g></g></g><g fill="#ffffff" fill-opacity="1"><g transform="translate(889.650609, 152.718803)"><g/></g></g><g fill="#ffffff" fill-opacity="1"><g transform="translate(949.365949, 175.943472)"><g><path d="M 6.40625 3.640625 L 40.859375 -57.03125 L 49.359375 -52.203125 L 47.1875 2.484375 L 92.875 -27.5 L 101.46875 -22.625 L 67.015625 38.046875 L 59.734375 33.921875 L 86.8125 -13.75 L 44.359375 13.71875 L 38.90625 10.625 L 40.734375 -39.8125 L 13.703125 7.78125 Z M 6.40625 3.640625 "/></g></g></g><g fill="#ffffff" fill-opacity="1"><g transform="translate(1052.45299, 239.752564)"><g><path d="M 5.65625 4.734375 L 50.421875 -48.796875 L 83.546875 -21.109375 L 79.140625 -15.828125 L 52.4375 -38.140625 L 36.828125 -19.484375 L 61.21875 0.90625 L 56.859375 6.109375 L 32.46875 -14.28125 L 16.484375 4.828125 L 43.1875 27.140625 L 38.78125 32.421875 Z M 5.65625 4.734375 "/></g></g></g><g fill="#ffffff" fill-opacity="1"><g transform="translate(1122.466997, 301.656457)"><g><path d="M 4.78125 5.609375 L 57.859375 -39.6875 L 71.78125 -23.375 C 79.757812 -14.03125 83.257812 -5.117188 82.28125 3.359375 C 81.3125 11.835938 76.679688 19.617188 68.390625 26.703125 C 60.242188 33.648438 51.921875 36.925781 43.421875 36.53125 C 34.921875 36.132812 26.679688 31.265625 18.703125 21.921875 Z M 15.53125 7.453125 L 23.890625 17.234375 C 28.285156 22.390625 32.632812 25.773438 36.9375 27.390625 C 41.238281 29.003906 45.53125 29.117188 49.8125 27.734375 C 54.101562 26.359375 58.421875 23.816406 62.765625 20.109375 C 67.210938 16.304688 70.46875 12.382812 72.53125 8.34375 C 74.59375 4.3125 75.175781 0.0351562 74.28125 -4.484375 C 73.382812 -9.003906 70.738281 -13.84375 66.34375 -19 L 57.984375 -28.78125 Z M 15.53125 7.453125 "/></g></g></g><g fill="#ffffff" fill-opacity="1"><g transform="translate(1188.713867, 385.95274)"><g><path d="M 3.953125 6.234375 L 62.890625 -31.125 L 67.375 -24.0625 L 8.4375 13.296875 Z M 3.953125 6.234375 "/></g></g></g><g fill="#ffffff" fill-opacity="1"><g transform="translate(1220.586601, 438.057597)"><g><path d="M 14.453125 35.15625 C 11.648438 28.914062 10.613281 22.914062 11.34375 17.15625 C 12.082031 11.394531 14.363281 6.160156 18.1875 1.453125 C 22.019531 -3.242188 27.207031 -7.0625 33.75 -10 C 40.238281 -12.914062 46.507812 -14.238281 52.5625 -13.96875 C 58.625 -13.695312 64.0625 -11.925781 68.875 -8.65625 C 73.695312 -5.394531 77.507812 -0.644531 80.3125 5.59375 C 83.570312 12.863281 84.484375 19.570312 83.046875 25.71875 C 81.617188 31.863281 78.070312 36.976562 72.40625 41.0625 L 68.609375 32.59375 C 72.097656 29.851562 74.367188 26.445312 75.421875 22.375 C 76.472656 18.300781 75.851562 13.71875 73.5625 8.625 C 71.519531 4.070312 68.691406 0.566406 65.078125 -1.890625 C 61.472656 -4.347656 57.300781 -5.617188 52.5625 -5.703125 C 47.820312 -5.796875 42.722656 -4.617188 37.265625 -2.171875 C 31.816406 0.273438 27.550781 3.296875 24.46875 6.890625 C 21.382812 10.492188 19.554688 14.460938 18.984375 18.796875 C 18.410156 23.128906 19.144531 27.570312 21.1875 32.125 C 23.476562 37.21875 26.460938 40.738281 30.140625 42.6875 C 33.816406 44.644531 37.8125 45.238281 42.125 44.46875 L 45.921875 52.9375 C 39.234375 54.394531 33.128906 53.613281 27.609375 50.59375 C 22.097656 47.570312 17.710938 42.425781 14.453125 35.15625 Z M 14.453125 35.15625 "/></g></g></g><g fill="#ffffff" fill-opacity="1"><g transform="translate(1261.33734, 539.724799)"><g><path d="M 2.03125 7.09375 L 69.125 -12.09375 L 71.421875 -4.046875 L 4.328125 15.140625 Z M 2.03125 7.09375 "/></g></g></g><g fill="#ffffff" fill-opacity="1"><g transform="translate(1277.13495, 598.763366)"><g><path d="M 1.015625 7.3125 L 70.140625 -2.265625 L 71.28125 6.015625 L 21 50.53125 L 76.390625 42.859375 L 77.546875 51.15625 L 8.421875 60.734375 L 7.265625 52.4375 L 57.546875 7.921875 L 2.15625 15.59375 Z M 1.015625 7.3125 "/></g></g></g><g fill="#ffffff" fill-opacity="1"><g transform="translate(1288.050039, 704.070559)"><g><path d="M -0.21875 7.375 L 69.53125 9.4375 L 68.25 52.59375 L 61.375 52.390625 L 62.40625 17.609375 L 38.09375 16.890625 L 37.15625 48.671875 L 30.375 48.46875 L 31.3125 16.6875 L 6.40625 15.953125 L 5.375 50.734375 L -1.5 50.53125 Z M -0.21875 7.375 "/></g></g></g><g fill="#ffffff" fill-opacity="1"><g transform="translate(1281.728733, 798.150387)"><g/></g></g></g></g></g></g></g></svg>