<svg xmlns="http://www.w3.org/2000/svg" xmlns:xlink="http://www.w3.org/1999/xlink" width="320" zoomAndPan="magnify" viewBox="0 0 240 187.499995" height="250" preserveAspectRatio="xMidYMid meet" version="1.0"><defs><g/><clipPath id="8a15c4c527"><path d="M 0.695312 123 L 227.132812 123 L 227.132812 171 L 0.695312 171 Z M 0.695312 123 " clip-rule="nonzero"/></clipPath><clipPath id="c1cb34e125"><rect x="0" width="228" y="0" height="48"/></clipPath><clipPath id="cbc0505ba6"><path d="M 152.703125 119.195312 L 199.691406 119.195312 L 199.691406 166.183594 L 152.703125 166.183594 Z M 152.703125 119.195312 " clip-rule="nonzero"/></clipPath><clipPath id="b2557231b2"><path d="M 67.492188 38 L 123 38 L 123 92 L 67.492188 92 Z M 67.492188 38 " clip-rule="nonzero"/></clipPath><clipPath id="8abe72eeb8"><path d="M 122.269531 38.128906 C 122.292969 41.773438 121.867188 53.808594 115.953125 65.5625 C 114.085938 69.257812 111.683594 72.929688 108.570312 76.304688 C 100.511719 85.042969 87.730469 91.769531 67.492188 91.769531 L 67.492188 71.238281 C 82.417969 71.238281 93.285156 68.953125 101.199219 65.5625 C 104.015625 64.351562 106.460938 63.007812 108.578125 61.570312 C 121.027344 53.132812 122.21875 41.691406 122.269531 38.128906 Z M 122.269531 38.128906 " clip-rule="nonzero"/></clipPath><clipPath id="8a23cc8ad4"><path d="M 101 89 L 123 89 L 123 119.152344 L 101 119.152344 Z M 101 89 " clip-rule="nonzero"/></clipPath><clipPath id="7e2f564775"><path d="M 101 64 L 156.613281 64 L 156.613281 119 L 101 119 Z M 101 64 " clip-rule="nonzero"/></clipPath><clipPath id="f9ecd19bf6"><path d="M 101.71875 118.035156 C 101.695312 114.390625 102.121094 102.355469 108.035156 90.601562 C 109.902344 86.90625 112.304688 83.234375 115.417969 79.863281 C 123.476562 71.121094 136.257812 64.394531 156.496094 64.394531 L 156.496094 84.925781 C 141.570312 84.925781 130.703125 87.214844 122.792969 90.601562 C 119.976562 91.8125 117.527344 93.160156 115.414062 94.59375 C 102.964844 103.035156 101.773438 114.476562 101.71875 118.035156 Z M 101.71875 118.035156 " clip-rule="nonzero"/></clipPath><clipPath id="fc40e733e0"><path d="M 64 162 L 162 162 L 162 173.777344 L 64 173.777344 Z M 64 162 " clip-rule="nonzero"/></clipPath><clipPath id="24dbe41b2a"><rect x="0" width="98" y="0" height="12"/></clipPath><clipPath id="b901461621"><rect x="0" width="212" y="0" height="122"/></clipPath><clipPath id="bc05773da9"><rect x="0" width="228" y="0" height="174"/></clipPath></defs><g transform="matrix(1, 0, 0, 1, 8, 0)"><g clip-path="url(#bc05773da9)"><g clip-path="url(#8a15c4c527)"><g transform="matrix(1, 0, 0, 1, -0.000000000000003553, 123)"><g clip-path="url(#c1cb34e125)"><g fill="#ffffff" fill-opacity="1"><g transform="translate(2.259976, 33.946754)"><g><path d="M 13.234375 -30.5625 C 14.859375 -30.5625 16.445312 -30.320312 18 -29.84375 C 19.550781 -29.375 20.707031 -28.90625 21.46875 -28.4375 L 22.546875 -27.71875 L 19.78125 -22.265625 C 19.5625 -22.410156 19.257812 -22.597656 18.875 -22.828125 C 18.488281 -23.054688 17.757812 -23.363281 16.6875 -23.75 C 15.625 -24.132812 14.632812 -24.328125 13.71875 -24.328125 C 12.570312 -24.328125 11.691406 -24.082031 11.078125 -23.59375 C 10.460938 -23.113281 10.15625 -22.460938 10.15625 -21.640625 C 10.15625 -21.234375 10.296875 -20.851562 10.578125 -20.5 C 10.867188 -20.144531 11.363281 -19.765625 12.0625 -19.359375 C 12.769531 -18.960938 13.390625 -18.644531 13.921875 -18.40625 C 14.460938 -18.164062 15.289062 -17.800781 16.40625 -17.3125 C 18.34375 -16.488281 19.992188 -15.367188 21.359375 -13.953125 C 22.734375 -12.535156 23.421875 -10.925781 23.421875 -9.125 C 23.421875 -7.40625 23.113281 -5.898438 22.5 -4.609375 C 21.882812 -3.328125 21.035156 -2.320312 19.953125 -1.59375 C 18.867188 -0.875 17.671875 -0.335938 16.359375 0.015625 C 15.054688 0.367188 13.640625 0.546875 12.109375 0.546875 C 10.804688 0.546875 9.519531 0.410156 8.25 0.140625 C 6.988281 -0.117188 5.929688 -0.445312 5.078125 -0.84375 C 4.234375 -1.25 3.472656 -1.644531 2.796875 -2.03125 C 2.117188 -2.425781 1.625 -2.753906 1.3125 -3.015625 L 0.84375 -3.421875 L 4.25 -9.171875 C 4.539062 -8.921875 4.941406 -8.609375 5.453125 -8.234375 C 5.960938 -7.859375 6.863281 -7.351562 8.15625 -6.71875 C 9.457031 -6.09375 10.609375 -5.78125 11.609375 -5.78125 C 14.492188 -5.78125 15.9375 -6.765625 15.9375 -8.734375 C 15.9375 -9.140625 15.832031 -9.519531 15.625 -9.875 C 15.414062 -10.226562 15.050781 -10.578125 14.53125 -10.921875 C 14.007812 -11.273438 13.546875 -11.554688 13.140625 -11.765625 C 12.742188 -11.972656 12.09375 -12.285156 11.1875 -12.703125 C 10.28125 -13.128906 9.609375 -13.453125 9.171875 -13.671875 C 7.347656 -14.566406 5.9375 -15.6875 4.9375 -17.03125 C 3.945312 -18.382812 3.453125 -19.835938 3.453125 -21.390625 C 3.453125 -24.078125 4.445312 -26.273438 6.4375 -27.984375 C 8.425781 -29.703125 10.691406 -30.5625 13.234375 -30.5625 Z M 13.234375 -30.5625 "/></g></g></g><g fill="#ffffff" fill-opacity="1"><g transform="translate(30.436472, 33.946754)"><g><path d="M 17.421875 -30.015625 L 29.53125 0 L 22.1875 0 L 19.96875 -6 L 8.546875 -6 L 6.328125 0 L -1.015625 0 L 11.09375 -30.015625 Z M 17.640625 -12 L 14.296875 -20.734375 L 14.21875 -20.734375 L 10.875 -12 Z M 17.640625 -12 "/></g></g></g><g fill="#ffffff" fill-opacity="1"><g transform="translate(62.684536, 33.946754)"><g><path d="M 26.984375 0 L 25.578125 -17.78125 L 25.390625 -17.78125 L 19.25 -0.1875 L 15.171875 -0.1875 L 9.015625 -17.78125 L 8.84375 -17.78125 L 7.421875 0 L 0.578125 0 L 3.28125 -30.015625 L 10.546875 -30.015625 L 17.203125 -12.6875 L 23.859375 -30.015625 L 31.140625 -30.015625 L 33.828125 0 Z M 26.984375 0 "/></g></g></g><g fill="#ffffff" fill-opacity="1"><g transform="translate(100.821841, 33.946754)"><g><path d="M 19.34375 -30.015625 L 19.34375 -24 L 9.015625 -24 L 9.015625 -18.046875 L 18.921875 -18.046875 L 18.921875 -12.046875 L 9.015625 -12.046875 L 9.015625 -6 L 19.34375 -6 L 19.34375 0 L 2.1875 0 L 2.1875 -30.015625 Z M 19.34375 -30.015625 "/></g></g></g><g fill="#ffffff" fill-opacity="1"><g transform="translate(125.65383, 33.946754)"><g><path d="M 2.1875 -30.015625 L 10.875 -30.015625 C 15.039062 -30.015625 18.601562 -28.585938 21.5625 -25.734375 C 24.53125 -22.890625 26.015625 -19.316406 26.015625 -15.015625 C 26.015625 -10.703125 24.539062 -7.117188 21.59375 -4.265625 C 18.644531 -1.421875 15.070312 0 10.875 0 L 2.1875 0 Z M 9.015625 -6.109375 L 10.078125 -6.109375 C 12.578125 -6.109375 14.617188 -6.953125 16.203125 -8.640625 C 17.796875 -10.328125 18.601562 -12.441406 18.625 -14.984375 C 18.625 -17.535156 17.828125 -19.65625 16.234375 -21.34375 C 14.648438 -23.039062 12.597656 -23.890625 10.078125 -23.890625 L 9.015625 -23.890625 Z M 9.015625 -6.109375 "/></g></g></g></g></g></g><g clip-path="url(#cbc0505ba6)"><path fill="#ffffff" d="M 198.636719 141.589844 C 196.824219 141.390625 195.082031 141.890625 193.269531 142.03125 C 193.097656 142.039062 192.925781 142.039062 192.753906 142.042969 C 192.683594 140.0625 192.269531 138.152344 191.507812 136.316406 C 190.75 134.484375 189.695312 132.839844 188.34375 131.382812 C 188.46875 131.265625 188.585938 131.140625 188.710938 131.027344 C 190.089844 129.84375 191.679688 128.964844 192.816406 127.542969 C 192.875 127.472656 193.464844 126.765625 192.769531 126.070312 C 192.074219 125.371094 191.367188 125.964844 191.296875 126.019531 C 189.875 127.160156 188.996094 128.746094 187.8125 130.125 C 187.699219 130.253906 187.570312 130.371094 187.457031 130.496094 C 186 129.144531 184.355469 128.089844 182.523438 127.328125 C 180.6875 126.570312 178.777344 126.15625 176.796875 126.085938 C 176.800781 125.914062 176.800781 125.742188 176.808594 125.570312 C 176.949219 123.757812 177.453125 122.011719 177.25 120.203125 C 177.238281 120.113281 177.15625 119.195312 176.171875 119.195312 C 175.191406 119.195312 175.105469 120.113281 175.097656 120.203125 C 174.894531 122.015625 175.398438 123.757812 175.535156 125.570312 C 175.542969 125.742188 175.546875 125.914062 175.550781 126.085938 C 173.566406 126.15625 171.660156 126.570312 169.824219 127.332031 C 167.988281 128.089844 166.34375 129.144531 164.890625 130.496094 C 164.773438 130.371094 164.648438 130.253906 164.53125 130.128906 C 163.351562 128.75 162.472656 127.160156 161.050781 126.019531 C 160.980469 125.964844 160.269531 125.375 159.574219 126.070312 C 158.878906 126.765625 159.472656 127.472656 159.527344 127.542969 C 160.667969 128.964844 162.253906 129.84375 163.632812 131.027344 C 163.761719 131.140625 163.878906 131.269531 164.003906 131.386719 C 162.652344 132.839844 161.597656 134.484375 160.835938 136.316406 C 160.078125 138.152344 159.664062 140.0625 159.589844 142.046875 C 159.417969 142.039062 159.246094 142.039062 159.074219 142.03125 C 157.265625 141.890625 155.519531 141.390625 153.710938 141.589844 C 153.621094 141.601562 152.703125 141.683594 152.703125 142.664062 C 152.703125 143.648438 153.621094 143.734375 153.710938 143.742188 C 155.523438 143.941406 157.265625 143.441406 159.078125 143.300781 C 159.25 143.292969 159.421875 143.292969 159.59375 143.285156 C 159.664062 145.269531 160.078125 147.179688 160.839844 149.015625 C 161.597656 150.847656 162.652344 152.492188 164.003906 153.945312 C 163.878906 154.0625 163.761719 154.191406 163.636719 154.304688 C 162.253906 155.484375 160.667969 156.367188 159.527344 157.789062 C 159.472656 157.855469 158.882812 158.566406 159.578125 159.261719 C 160.273438 159.957031 160.980469 159.363281 161.050781 159.308594 C 162.472656 158.171875 163.351562 156.582031 164.535156 155.203125 C 164.648438 155.074219 164.777344 154.960938 164.890625 154.832031 C 166.347656 156.183594 167.992188 157.242188 169.824219 158 C 171.660156 158.757812 173.570312 159.175781 175.554688 159.246094 C 175.546875 159.417969 175.546875 159.589844 175.539062 159.761719 C 175.398438 161.574219 174.894531 163.316406 175.097656 165.128906 C 175.109375 165.214844 175.191406 166.136719 176.175781 166.136719 C 177.15625 166.136719 177.242188 165.214844 177.25 165.128906 C 177.453125 163.316406 176.949219 161.574219 176.8125 159.761719 C 176.800781 159.589844 176.800781 159.417969 176.796875 159.246094 C 178.78125 159.175781 180.6875 158.757812 182.523438 158 C 184.359375 157.242188 186.003906 156.183594 187.457031 154.832031 C 187.574219 154.960938 187.699219 155.074219 187.8125 155.203125 C 188.996094 156.582031 189.875 158.171875 191.296875 159.308594 C 191.367188 159.363281 192.074219 159.957031 192.769531 159.261719 C 193.464844 158.566406 192.875 157.855469 192.820312 157.789062 C 191.679688 156.363281 190.09375 155.484375 188.710938 154.304688 C 188.585938 154.1875 188.46875 154.0625 188.34375 153.945312 C 189.695312 152.492188 190.75 150.847656 191.507812 149.015625 C 192.269531 147.179688 192.683594 145.269531 192.753906 143.285156 C 192.925781 143.292969 193.097656 143.292969 193.269531 143.300781 C 195.082031 143.441406 196.824219 143.941406 198.636719 143.742188 C 198.726562 143.730469 199.644531 143.648438 199.644531 142.664062 C 199.644531 141.679688 198.726562 141.601562 198.636719 141.589844 Z M 176.171875 145.148438 C 174.863281 145.148438 173.800781 144.035156 173.800781 142.664062 C 173.800781 141.296875 174.863281 140.179688 176.171875 140.179688 C 177.480469 140.179688 178.546875 141.296875 178.546875 142.664062 C 178.546875 144.035156 177.480469 145.148438 176.171875 145.148438 Z " fill-opacity="1" fill-rule="nonzero"/></g><path fill="#ffffff" d="M 101.714844 66.484375 L 101.714844 37.019531 L 122.273438 37.019531 C 122.273438 37.019531 122.546875 50.808594 117.292969 56.367188 C 112.035156 61.921875 101.714844 66.484375 101.714844 66.484375 Z M 101.714844 66.484375 " fill-opacity="1" fill-rule="nonzero"/><g clip-path="url(#b2557231b2)"><g clip-path="url(#8abe72eeb8)"><path fill="#ffffff" d="M 67.492188 38.128906 L 67.492188 91.769531 L 122.292969 91.769531 L 122.292969 38.128906 Z M 67.492188 38.128906 " fill-opacity="1" fill-rule="nonzero"/></g></g><g clip-path="url(#8a23cc8ad4)"><path fill="#ffffff" d="M 122.273438 89.683594 L 122.273438 119.144531 L 101.71875 119.144531 C 101.71875 119.144531 101.441406 105.355469 106.699219 99.800781 C 111.957031 94.246094 122.273438 89.683594 122.273438 89.683594 Z M 122.273438 89.683594 " fill-opacity="1" fill-rule="nonzero"/></g><g clip-path="url(#7e2f564775)"><g clip-path="url(#f9ecd19bf6)"><path fill="#ffffff" d="M 156.496094 118.035156 L 156.496094 64.394531 L 101.695312 64.394531 L 101.695312 118.035156 Z M 156.496094 118.035156 " fill-opacity="1" fill-rule="nonzero"/></g></g><g clip-path="url(#fc40e733e0)"><g transform="matrix(1, 0, 0, 1, 64, 162)"><g clip-path="url(#24dbe41b2a)"><g fill="#ffffff" fill-opacity="1"><g transform="translate(0.953558, 8.617506)"><g><path d="M 0.25 0 L 2.46875 -6 L 3.234375 -6 L 5.4375 0 L 4.671875 0 L 4.125 -1.546875 L 1.5625 -1.546875 L 1.015625 0 Z M 1.78125 -2.125 L 3.90625 -2.125 L 2.84375 -5.09375 Z M 1.78125 -2.125 "/></g></g></g></g></g></g></g></svg>
